<?xml version="1.0" encoding="UTF-8" standalone="no"?>
<svg
   width="1024"
   height="1024"
   version="1.1"
   id="svg23"
   sodipodi:docname="logo.svg"
   inkscape:version="1.4 (1:1.4+202410161351+e7c3feb100)"
   inkscape:export-filename="logo.png"
   inkscape:export-xdpi="24"
   inkscape:export-ydpi="24"
   xmlns:inkscape="http://www.inkscape.org/namespaces/inkscape"
   xmlns:sodipodi="http://sodipodi.sourceforge.net/DTD/sodipodi-0.dtd"
   xmlns="http://www.w3.org/2000/svg"
   xmlns:svg="http://www.w3.org/2000/svg">
  <defs
     id="defs23" />
  <sodipodi:namedview
     id="namedview23"
     pagecolor="#ffffff"
     bordercolor="#666666"
     borderopacity="1.0"
     inkscape:showpageshadow="2"
     inkscape:pageopacity="0.0"
     inkscape:pagecheckerboard="0"
     inkscape:deskcolor="#d1d1d1"
     inkscape:zoom="0.78125"
     inkscape:cx="511.36"
     inkscape:cy="512"
     inkscape:window-width="1860"
     inkscape:window-height="1016"
     inkscape:window-x="60"
     inkscape:window-y="27"
     inkscape:window-maximized="1"
     inkscape:current-layer="svg23" />
  <path
     fill="#fdc901"
     d="m 400.73651,118.59763 c 25.34788,-40.019998 69.24807,-75.158915 119.60733,-67.354138 52.39317,2.555038 75.01627,29.728372 102.35339,67.354138 6.22679,-0.42287 12.69776,0.13996 18.96327,0.11613 l 185.32958,-0.11613 0.0298,252.88025 c 0.006,14.67211 0.99461,31.26795 -2.17685,45.63036 1.8731,7.45666 2.67713,15.23493 3.64495,22.8524 30.4252,-0.0774 65.14453,-4.91354 88.77417,18.60294 26.20551,26.07449 27.14355,69.90321 0.2144,95.76925 -24.5766,23.60581 -57.98566,17.01274 -88.98857,17.76019 l -1.49788,9.25829 c 2.34063,14.27307 1.65571,29.64201 1.60806,44.07292 l -0.11018,282.79325 -282.10834,0.0179 c -11.86395,0.009 -23.86191,0.45562 -35.70204,-0.0179 -34.92183,-0.71469 -69.99553,0.009 -104.93522,0.0149 l -210.20994,-0.0149 c 0.73554,-25.00542 0.0268,-50.25205 0.0208,-75.27832 l -0.0238,-143.03447 c -0.0208,-17.95376 -2.66819,-68.56614 1.56638,-83.42586 l 0.4318,2.86176 c 1.56339,0.11614 3.01363,0.40202 4.54427,0.70576 l 0.60749,-0.75638 c -0.9023,-2.68011 -1.42343,-4.61873 -1.2805,-7.45667 -1.45917,-9.14215 -5.28279,-18.92753 -7.76934,-27.92972 -31.47342,-0.32756 -64.56086,5.45849 -89.35783,-18.55231 -26.419924,-25.58314 -26.905322,-69.99851 -0.80105,-96.17425 24.14183,-24.20734 56.66943,-19.31763 87.88079,-19.21638 4.74677,-18.19199 7.63236,-35.76458 13.92168,-53.69451 l -1.79865,-0.78914 c -2.06964,1.28943 -3.00768,4.16012 -4.0291,6.3191 l -0.71767,-0.19356 c -4.6217,-14.25223 -3.18635,-31.03865 -3.19827,-45.80605 l 0.003,-227.19885 c 15.28556,1.33409 31.33644,0.0864 46.71729,0.0536 l 108.93752,-0.0268 c 16.29209,0.0119 33.33163,-1.20605 49.54928,-0.0268 z"
     id="path1"
     style="stroke-width:2.9779" />
  <path
     fill="#dedede"
     d="m 510.67758,830.08633 c 135.92921,0.3633 263.46967,-89.28934 306.79513,-219.01558 3.28462,-9.83303 4.12141,-20.69045 9.51737,-29.71944 2.34063,14.27307 1.65571,29.64201 1.60806,44.07292 l -0.11018,282.79325 -282.10834,0.0179 c -11.86395,0.009 -23.86191,0.45562 -35.70204,-0.0179 0.77426,-25.93452 0.1221,-52.16982 0,-78.13115 z"
     id="path2"
     style="stroke-width:2.9779" />
  <path
     fill="#fefefe"
     d="m 201.39888,601.8333 c 6.78068,16.4797 12.5727,32.85815 20.88104,48.70653 55.07923,105.03648 168.21857,180.52623 288.39766,179.5465 0.1221,25.96133 0.77426,52.19663 0,78.13115 -34.92183,-0.71469 -69.99553,0.009 -104.93522,0.0149 l -210.20994,-0.0149 c 0.73554,-25.00542 0.0268,-50.25205 0.0208,-75.27832 l -0.0238,-143.03447 c -0.0208,-17.95376 -2.66819,-68.56614 1.56638,-83.42586 l 0.4318,2.86176 c 1.56339,0.11614 3.01363,0.40202 4.54427,0.70576 l 0.60749,-0.75638 c -0.9023,-2.68011 -1.42343,-4.61873 -1.2805,-7.45667 z"
     id="path3"
     style="stroke-width:2.9779" />
  <path
     fill="#dedede"
     d="m 622.69723,118.59763 c 6.22679,-0.42287 12.69776,0.13996 18.96327,0.11613 l 185.32958,-0.11613 0.0298,252.88025 c 0.006,14.67211 0.99461,31.26795 -2.17685,45.63036 -4.11248,-5.77415 -7.12313,-20.56836 -9.702,-28.02204 -34.6419,-100.10805 -90.02786,-146.29825 -179.64179,-189.97213 -0.71172,-37.22076 1.04227,-44.17416 -12.80199,-80.51644 z"
     id="path4"
     style="stroke-width:2.9779" />
  <path
     fill="#fefefe"
     d="m 195.53242,118.59763 c 15.28556,1.33409 31.33644,0.0864 46.71729,0.0536 l 108.93752,-0.0268 c 16.29209,0.0119 33.33163,-1.20605 49.54928,-0.0268 -14.33859,33.01001 -9.01708,73.06276 -12.1945,80.51644 -92.32978,44.77272 -143.07617,84.82845 -183.26888,187.15206 l -1.79865,-0.78914 c -2.06964,1.28943 -3.00768,4.16012 -4.0291,6.3191 l -0.71767,-0.19356 c -4.6217,-14.25223 -3.18635,-31.03865 -3.19827,-45.80605 z"
     id="path5"
     style="stroke-width:2.9779" />
  <path
     fill="#fde464"
     d="m 400.73651,118.59763 c 25.34788,-40.019998 69.24807,-75.158915 119.60733,-67.354138 -3.23102,0.06849 -6.43524,0.125072 -9.66626,0 V 298.74268 c -48.06032,-0.4169 -92.38338,-28.54316 -112.29659,-72.68755 -3.85638,-8.5555 -5.78308,-17.7989 -9.55906,-26.33059 l -0.27992,-0.61047 c 3.17742,-7.45368 -2.14409,-47.50643 12.1945,-80.51644 z"
     id="path6"
     style="stroke-width:2.9779" />
  <path
     fill="#84807e"
     d="m 193.62954,573.90358 c -31.47342,-0.32756 -64.56086,5.45849 -89.35783,-18.55231 -26.419924,-25.58314 -26.905322,-69.99851 -0.80105,-96.17425 24.14183,-24.20734 56.66943,-19.31763 87.88079,-19.21638 -9.64542,43.42373 -6.06598,90.67109 2.27809,133.94294 z"
     id="path7"
     style="stroke-width:2.9779" />
  <path
     fill="#84807e"
     d="m 828.48796,439.96064 c 30.4252,-0.0774 65.14453,-4.91354 88.77417,18.60294 26.20551,26.07449 27.14355,69.90321 0.2144,95.76925 -24.5766,23.60581 -57.98566,17.01274 -88.98857,17.76019 5.33937,-45.24621 9.37145,-86.4514 0,-132.13238 z"
     id="path8"
     style="stroke-width:2.9779" />
  <path
     fill="#e33913"
     d="m 637.96492,341.43981 q 1.80461,-0.21143 3.61815,-0.3365 1.81652,-0.1221 3.63304,-0.15783 1.81652,-0.0357 3.63601,0.0179 1.81652,0.0536 3.63006,0.19655 1.81057,0.14293 3.61517,0.37521 1.80163,0.23228 3.59135,0.55091 1.7927,0.31864 3.56455,0.72363 1.77185,0.40797 3.51987,0.89933 1.75101,0.49135 3.47521,1.06906 1.72421,0.57772 3.41863,1.23881 1.69443,0.66109 3.35312,1.40557 1.65869,0.7415 3.27866,1.56637 1.62296,0.8219 3.20124,1.72421 1.57829,0.89932 3.11191,1.87905 1.53362,0.97675 3.01661,2.02795 1.483,1.0512 2.91239,2.17387 1.42939,1.12267 2.8022,2.31383 1.37579,1.19116 2.68904,2.44783 1.31326,1.25667 2.56398,2.57886 1.25071,1.31921 2.43592,2.69798 1.18222,1.37877 2.29894,2.81411 1.11671,1.43535 2.15897,2.9243 1.04525,1.48895 2.01604,3.02555 0.9708,1.53659 1.86417,3.12084 0.89337,1.58424 1.70931,3.20719 0.81595,1.62594 1.54851,3.29058 0.73554,1.66167 1.3877,3.35907 0.65514,1.69741 1.22392,3.42459 0.56878,1.7242 1.0512,3.47818 0.48539,1.75101 0.88145,3.52584 0.39904,1.77483 0.70874,3.56454 0.30971,1.7927 0.53305,3.59731 0.22334,1.8046 0.35735,3.61814 0.134,1.81354 0.17867,3.63006 0.0447,1.81652 0,3.63602 -0.0417,1.81652 -0.1757,3.63006 -0.13102,1.81354 -0.35437,3.61815 -0.22036,1.8046 -0.53006,3.59432 -0.30673,1.7927 -0.70279,3.56752 -0.39606,1.77483 -0.87848,3.52584 -0.48242,1.75398 -1.0512,3.48116 -0.56877,1.72718 -1.21796,3.42459 -0.65216,1.6974 -1.38472,3.35907 -0.73554,1.66464 -1.54851,3.29058 -0.81296,1.62593 -1.70633,3.21017 -0.89337,1.58425 -1.86119,3.12084 -0.9708,1.53958 -2.01306,3.02853 -1.04227,1.48895 -2.156,2.92429 -1.11671,1.43833 -2.29894,2.8171 -1.18223,1.38174 -2.43294,2.70095 -1.24774,1.32219 -2.561,2.57886 -1.31325,1.25668 -2.68606,2.45081 -1.37281,1.19116 -2.80221,2.31681 -1.42641,1.12267 -2.9094,2.17387 -1.483,1.05417 -3.01364,2.0339 -1.53362,0.97675 -3.1119,1.87906 -1.57829,0.90528 -3.19827,1.73016 -1.61997,0.8219 -3.27866,1.56637 -1.65869,0.74448 -3.35312,1.40855 -1.69145,0.66109 -3.41565,1.24178 -1.7242,0.57771 -3.47223,1.07205 -1.75101,0.49433 -3.52286,0.9023 -1.77185,0.40797 -3.56156,0.72661 -1.78674,0.32161 -3.59135,0.55389 -1.81652,0.23525 -3.64197,0.37819 -1.82546,0.14592 -3.65686,0.19952 -1.82843,0.0566 -3.65984,0.0208 -1.83141,-0.0357 -3.65686,-0.1608 -1.82843,-0.12805 -3.64793,-0.34246 -1.81652,-0.21441 -3.6241,-0.52113 -1.80461,-0.30375 -3.59433,-0.69683 -1.78674,-0.39309 -3.55263,-0.8755 -1.76888,-0.47945 -3.50797,-1.04823 -1.74207,-0.5658 -3.45436,-1.21796 -1.70932,-0.65216 -3.38587,-1.3877 -1.67954,-0.73554 -3.31738,-1.55446 -1.63785,-0.81892 -3.234,-1.71527 -1.59616,-0.89635 -3.14764,-1.87012 -1.54851,-0.97675 -3.04937,-2.02497 -1.50086,-1.0512 -2.94812,-2.17387 -1.44726,-1.12267 -2.83794,-2.31383 -1.3877,-1.19414 -2.71882,-2.45379 -1.32815,-1.25965 -2.59375,-2.58184 -1.26561,-1.32218 -2.4657,-2.70691 -1.2001,-1.38472 -2.32872,-2.82602 -1.12863,-1.44131 -2.18578,-2.93621 -1.05715,-1.49491 -2.03986,-3.04044 -0.98271,-1.54553 -1.88799,-3.13871 -0.9023,-1.59317 -1.73016,-3.22506 -0.82488,-1.63487 -1.56935,-3.30845 -0.7415,-1.67358 -1.40259,-3.38289 -0.6611,-1.70634 -1.23583,-3.44543 -0.57771,-1.73909 -1.06609,-3.50201 -0.48838,-1.7659 -0.89039,-3.55263 -0.40202,-1.78674 -0.7147,-3.59135 -0.31566,-1.80461 -0.539,-3.62113 -0.22334,-1.81652 -0.35735,-3.64495 -0.13698,-1.82545 -0.17867,-3.65686 -0.0447,-1.83141 0,-3.65984 0.0447,-1.8314 0.18165,-3.65686 0.13699,-1.82843 0.36331,-3.64495 0.22334,-1.81651 0.539,-3.62112 0.31565,-1.80461 0.71767,-3.59135 0.40499,-1.78376 0.89635,-3.54966 0.49135,-1.76291 1.06609,-3.50201 0.57771,-1.73909 1.24178,-3.44542 0.66109,-1.70634 1.40557,-3.37992 0.74745,-1.67358 1.57233,-3.30547 0.82786,-1.63487 1.73314,-3.22506 0.90826,-1.59318 1.89096,-3.13871 0.98271,-1.54255 2.04284,-3.03746 1.05716,-1.4949 2.18876,-2.93621 1.1316,-1.43832 2.33169,-2.82305 1.2001,-1.38174 2.4657,-2.70393 1.26859,-1.32219 2.59673,-2.58184 1.33112,-1.25667 2.7218,-2.44783 1.39068,-1.19116 2.84092,-2.31383 1.44726,-1.12267 2.94812,-2.17089 1.50086,-1.04822 3.05235,-2.02199 1.55148,-0.97378 3.14764,-1.86715 1.59913,-0.89634 3.23697,-1.71229 1.64083,-0.81594 3.31738,-1.55148 1.67656,-0.73554 3.38885,-1.38473 1.7123,-0.65216 3.45437,-1.21796 1.74207,-0.5658 3.50796,-1.04524 1.76888,-0.47944 3.55859,-0.86955 1.78674,-0.39308 3.59433,-0.69385 1.80461,-0.30374 3.6241,-0.51815 z"
     id="path9"
     style="stroke-width:2.9779" />
  <path
     fill="#fefefe"
     d="m 640.06732,393.13614 q 0.55984,-0.134 1.12565,-0.2412 0.56282,-0.10721 1.13457,-0.18761 0.56878,-0.0774 1.14352,-0.12805 0.57175,-0.0506 1.14649,-0.0744 0.57473,-0.0238 1.14947,-0.0179 0.57771,0.006 1.15245,0.0387 0.57175,0.0357 1.14649,0.0983 0.57175,0.0596 1.13755,0.15187 0.56878,0.0893 1.13161,0.20845 0.56282,0.11614 1.11969,0.26206 0.55686,0.14591 1.10778,0.31863 0.54793,0.17272 1.08693,0.37224 0.539,0.19952 1.06907,0.42584 0.53006,0.22334 1.04822,0.47646 0.51517,0.25015 1.02142,0.52709 0.50326,0.27695 0.99461,0.57771 0.49136,0.30077 0.96484,0.62536 0.47349,0.32459 0.93209,0.67301 0.45859,0.34841 0.89932,0.71767 0.44073,0.36926 0.86359,0.76234 0.42286,0.39011 0.82488,0.80106 0.40202,0.41095 0.78319,0.84275 0.38117,0.43179 0.7415,0.87848 0.36032,0.44966 0.69682,0.91719 0.33651,0.46455 0.65216,0.94697 0.31268,0.48242 0.60452,0.97973 0.28885,0.49731 0.55389,1.00653 0.26503,0.50922 0.50624,1.03333 0.23823,0.52411 0.45264,1.05716 0.21441,0.53602 0.40202,1.07799 0.1876,0.54496 0.34543,1.09587 0.16081,0.55389 0.29482,1.11374 0.134,0.55984 0.23823,1.12564 0.10422,0.5658 0.18165,1.13458 0.0774,0.57176 0.12805,1.14352 0.0477,0.57473 0.0685,1.14946 0.0208,0.57474 0.0149,1.14947 -0.009,0.57474 -0.0447,1.14947 -0.0357,0.57474 -0.0983,1.14649 -0.0625,0.57176 -0.15485,1.14054 -0.0923,0.56878 -0.21143,1.1316 -0.11912,0.56283 -0.26801,1.11671 -0.14592,0.55687 -0.32162,1.10481 -0.17271,0.55091 -0.37521,1.08991 -0.2025,0.539 -0.42882,1.06608 -0.22632,0.53007 -0.47944,1.04525 -0.25312,0.51815 -0.53304,1.02142 -0.27695,0.50326 -0.58069,0.99164 -0.30077,0.49135 -0.62834,0.96484 -0.32757,0.47348 -0.67598,0.9291 -0.34842,0.4586 -0.72066,0.89933 -0.36926,0.43775 -0.76234,0.85763 -0.39308,0.42286 -0.80701,0.8219 -0.41095,0.40202 -0.84274,0.78319 -0.4318,0.37819 -0.88146,0.73852 -0.44967,0.35735 -0.9172,0.69385 -0.46753,0.3365 -0.94995,0.64918 -0.48539,0.31268 -0.9827,0.60154 -0.49731,0.28588 -1.00951,0.55091 -0.5122,0.26503 -1.03333,0.50029 -0.52411,0.23823 -1.06013,0.45264 -0.53603,0.21143 -1.078,0.39606 -0.54496,0.18463 -1.09885,0.34543 -0.55389,0.15783 -1.11373,0.28886 -0.55687,0.13103 -1.12267,0.23525 -0.56282,0.10125 -1.1316,0.1757 -0.56878,0.0774 -1.13756,0.12507 -0.57176,0.0476 -1.14351,0.0655 -0.57474,0.0208 -1.1465,0.0119 -0.57473,-0.009 -1.14649,-0.0447 -0.57175,-0.0387 -1.14053,-0.10125 -0.56878,-0.0655 -1.13458,-0.15783 -0.5658,-0.0923 -1.12565,-0.21143 -0.55984,-0.12209 -1.11373,-0.26801 -0.55389,-0.14889 -1.10183,-0.32161 -0.54495,-0.1757 -1.08097,-0.37522 -0.53603,-0.19952 -1.06311,-0.42882 -0.52709,-0.22632 -1.04227,-0.47944 -0.5122,-0.25014 -1.01546,-0.52709 -0.50029,-0.27694 -0.98866,-0.58069 -0.48838,-0.30076 -0.95889,-0.62536 -0.47348,-0.32459 -0.9291,-0.673 -0.45562,-0.34841 -0.89337,-0.71767 -0.43775,-0.36926 -0.85764,-0.75937 -0.41988,-0.3901 -0.81892,-0.80105 -0.39904,-0.41095 -0.77723,-0.83977 -0.38117,-0.4318 -0.73852,-0.87848 -0.35735,-0.44669 -0.69385,-0.91124 -0.33353,-0.46455 -0.64621,-0.94697 -0.31268,-0.47944 -0.60153,-0.97675 -0.28588,-0.49433 -0.55091,-1.00355 -0.26206,-0.50923 -0.50029,-1.03036 -0.24121,-0.52113 -0.45264,-1.0512 -0.21143,-0.53304 -0.39904,-1.07502 -0.18463,-0.54198 -0.34544,-1.09289 -0.1608,-0.55091 -0.29183,-1.10778 -0.13103,-0.55686 -0.23823,-1.11969 -0.10423,-0.5658 -0.18165,-1.1316 -0.0774,-0.56878 -0.12508,-1.14053 -0.0506,-0.56878 -0.0715,-1.14352 -0.0208,-0.57175 -0.0149,-1.14351 0.006,-0.57474 0.0417,-1.14649 0.0357,-0.57176 0.0983,-1.14054 0.0625,-0.57175 0.15485,-1.13755 0.0893,-0.56581 0.20845,-1.12565 0.11614,-0.55985 0.26206,-1.11374 0.14591,-0.55388 0.31863,-1.10182 0.17272,-0.54495 0.37224,-1.08395 0.19952,-0.53603 0.42286,-1.06311 0.22632,-0.52709 0.47646,-1.04227 0.25015,-0.51518 0.52709,-1.01844 0.27397,-0.50327 0.57474,-0.99164 0.30076,-0.48838 0.62238,-0.96186 0.32459,-0.47349 0.67002,-0.92911 0.34544,-0.45562 0.7147,-0.89635 0.36926,-0.43775 0.75639,-0.85763 0.3901,-0.42286 0.80105,-0.8219 0.40797,-0.40202 0.83679,-0.78319 0.42882,-0.38117 0.8755,-0.73852 0.44669,-0.36032 0.91124,-0.69683 0.46158,-0.3365 0.94102,-0.64918 0.47944,-0.31268 0.97377,-0.60451 0.49433,-0.28886 1.00355,-0.55389 0.50922,-0.26503 1.02738,-0.50624 0.52113,-0.23824 1.0512,-0.45264 0.53304,-0.21441 1.07502,-0.405 0.54198,-0.18761 1.08991,-0.34841 0.55091,-0.16081 1.10778,-0.29482 z"
     id="path10"
     style="stroke-width:2.9779" />
  <path
     fill="#e33913"
     d="m 366.72591,341.21647 q 1.80759,-0.21144 3.62411,-0.33651 1.81652,-0.12209 3.63601,-0.15485 1.8195,-0.0357 3.639,0.0209 1.81949,0.0566 3.63601,0.19952 1.81354,0.14591 3.61815,0.38117 1.80461,0.23227 3.5973,0.55686 1.7927,0.32162 3.56455,0.73257 1.77483,0.41095 3.52583,0.90528 1.75101,0.49731 3.47521,1.08098 1.72421,0.58069 3.41863,1.24774 1.69442,0.66705 3.35311,1.4145 1.65869,0.75043 3.28165,1.58126 1.61998,0.82786 3.19826,1.73612 1.57531,0.90826 3.10595,1.89394 1.53362,0.98271 3.01364,2.04284 1.48001,1.05716 2.90643,2.18876 1.42939,1.12862 2.79922,2.32872 1.36984,1.20009 2.67714,2.46272 1.31027,1.26561 2.55503,2.59375 1.24477,1.32814 2.42401,2.71584 1.17925,1.38473 2.28703,2.82901 1.11076,1.44428 2.14707,2.93919 1.03631,1.49788 1.99817,3.04341 0.96186,1.54553 1.84629,3.13573 0.88742,1.5902 1.69145,3.22209 0.80701,1.63486 1.53064,3.30249 0.72363,1.6706 1.36686,3.37396 0.64025,1.70335 1.19711,3.43649 0.55687,1.73314 1.02738,3.49308 0.47051,1.75696 0.85466,3.53774 0.38414,1.77781 0.68193,3.57646 0.29482,1.79567 0.50327,3.60326 0.20845,1.80758 0.32757,3.6241 0.11614,1.81652 0.14592,3.639 0.0298,1.81949 -0.0328,3.63899 -0.0596,1.8195 -0.20845,3.63304 -0.1489,1.81354 -0.39011,3.61815 -0.23823,1.8046 -0.5658,3.59432 -0.32757,1.7927 -0.7415,3.56455 -0.41392,1.77185 -0.91719,3.52285 -0.50029,1.74803 -1.08693,3.47223 -0.58665,1.72421 -1.25668,3.41565 -0.673,1.69145 -1.42343,3.35014 -0.75341,1.65571 -1.58722,3.27569 -0.83382,1.617 -1.74803,3.19231 -0.91124,1.57531 -1.8999,3.10297 -0.98866,1.53064 -2.05177,3.00768 -1.06311,1.47704 -2.19472,2.90345 -1.13457,1.42344 -2.33765,2.79029 -1.20307,1.36686 -2.47165,2.67118 -1.26561,1.3073 -2.59673,2.54908 -1.33112,1.24178 -2.7218,2.41508 -1.39068,1.17627 -2.83794,2.28107 -1.44428,1.1048 -2.94514,2.13813 -1.49789,1.03333 -3.04639,1.99221 -1.54851,0.95889 -3.14169,1.83737 -1.59317,0.88146 -3.22506,1.68251 -1.63487,0.80106 -3.30845,1.52171 -1.6706,0.72065 -3.37694,1.35792 -1.70336,0.63727 -3.43947,1.18818 -1.73314,0.55389 -3.49308,1.02142 -1.75994,0.46455 -3.54072,0.84573 -1.78078,0.37819 -3.57646,0.67002 -1.79567,0.29184 -3.60623,0.49433 -1.80163,0.2025 -3.61517,0.31566 -1.81057,0.11316 -3.62411,0.13996 -1.81354,0.0238 -3.62708,-0.0417 -1.81354,-0.0625 -3.62113,-0.21441 -1.80758,-0.15485 -3.60623,-0.39606 -1.79865,-0.24121 -3.58242,-0.56878 -1.78376,-0.33054 -3.54965,-0.74447 -1.7659,-0.41691 -3.51095,-0.92017 -1.74207,-0.50029 -3.46032,-1.08694 -1.71527,-0.58664 -3.40076,-1.25667 -1.68847,-0.67003 -3.33822,-1.42343 -1.65274,-0.75044 -3.26378,-1.58425 -1.61104,-0.83083 -3.18337,-1.74207 -1.56936,-0.90826 -3.09106,-1.89394 -1.52469,-0.98569 -2.99577,-2.04582 -1.47406,-1.06013 -2.89452,-2.18876 -1.41748,-1.1316 -2.78136,-2.32871 -1.3609,-1.2001 -2.66522,-2.46273 -1.30134,-1.26263 -2.54015,-2.58779 -1.2388,-1.32814 -2.40912,-2.71287 -1.17329,-1.38472 -2.27511,-2.82602 -1.10183,-1.43833 -2.13516,-2.93324 -1.03035,-1.49192 -1.98626,-3.03448 -0.9559,-1.54255 -1.83736,-3.12679 -0.87848,-1.58722 -1.67953,-3.21613 -0.80106,-1.62891 -1.52171,-3.29356 -0.72065,-1.66464 -1.3609,-3.36205 -0.63727,-1.70038 -1.19116,-3.42756 -0.55389,-1.72718 -1.02142,-3.48116 -0.47051,-1.75101 -0.85168,-3.52584 -0.38117,-1.77185 -0.67598,-3.56454 -0.29779,-1.78972 -0.50327,-3.59135 -0.20547,-1.80163 -0.32459,-3.61219 -0.11912,-1.81057 -0.14889,-3.62411 -0.0298,-1.81651 0.0298,-3.63006 0.0596,-1.81354 0.20846,-3.62112 0.14591,-1.80759 0.38415,-3.60624 0.23525,-1.79865 0.55984,-3.58539 0.32459,-1.78376 0.73554,-3.55263 0.41095,-1.7659 0.90826,-3.51095 0.50029,-1.74505 1.08098,-3.46329 0.58367,-1.71825 1.24774,-3.40672 0.66705,-1.68847 1.4145,-3.3412 0.74745,-1.65274 1.57531,-3.26676 0.82786,-1.61402 1.73314,-3.18635 0.90528,-1.57233 1.88799,-3.09702 0.9827,-1.52766 2.03688,-3.00172 1.05715,-1.47704 2.1828,-2.90048 1.12565,-1.42045 2.31978,-2.78731 1.19712,-1.36388 2.45677,-2.67118 1.25965,-1.30432 2.58184,-2.5461 1.32219,-1.24178 2.70393,-2.41805 1.38175,-1.17627 2.82007,-2.28108 1.43833,-1.10777 2.93026,-2.14111 1.48895,-1.0363 3.02852,-1.99817 1.53958,-0.95888 3.12382,-1.84332 1.58424,-0.88443 3.21017,-1.68846 1.62594,-0.80702 3.2876,-1.53065 1.66465,-0.7266 3.36205,-1.36685 1.69741,-0.64323 3.42161,-1.20307 1.72718,-0.55687 3.47819,-1.03036 1.751,-0.47348 3.52583,-0.86061 1.77185,-0.38713 3.56157,-0.68492 1.78972,-0.30076 3.59134,-0.51219 z"
     id="path11"
     style="stroke-width:2.9779" />
  <path
     fill="#fefefe"
     d="m 372.32437,391.97774 q 0.56877,-0.0536 1.14053,-0.0774 0.57176,-0.0268 1.14351,-0.0238 0.57474,0.003 1.14352,0.0328 0.57176,0.0328 1.14351,0.0893 0.56878,0.0596 1.13458,0.14591 0.5658,0.0864 1.12565,0.19952 0.55984,0.11316 1.11373,0.2561 0.55687,0.13996 1.10182,0.30673 0.54794,0.16974 1.08694,0.3633 0.539,0.19654 1.06609,0.41691 0.52708,0.22036 1.04524,0.46455 0.51518,0.24716 1.01844,0.51815 0.50624,0.27099 0.99462,0.5658 0.49135,0.29482 0.96484,0.61643 0.47646,0.31863 0.93506,0.65812 0.4586,0.34245 0.89932,0.70576 0.44371,0.36628 0.86657,0.75043 0.42287,0.38415 0.82786,0.78914 0.40202,0.405 0.78617,0.83084 0.38414,0.42286 0.74745,0.86656 0.3633,0.44371 0.70278,0.90231 0.33948,0.46157 0.65812,0.93804 0.31863,0.47348 0.61047,0.96484 0.29481,0.49135 0.5658,0.99759 0.26801,0.50327 0.5122,1.02142 0.24419,0.51816 0.46455,1.04524 0.22036,0.53007 0.41095,1.06609 0.19356,0.539 0.36033,1.08694 0.16676,0.54793 0.30672,1.10182 0.13996,0.55687 0.25014,1.11671 0.11316,0.56282 0.19654,1.12862 0.0864,0.56581 0.14294,1.13458 0.0566,0.56878 0.0864,1.14054 0.0298,0.57176 0.0298,1.14351 0,0.57176 -0.0268,1.14352 -0.0268,0.57175 -0.0804,1.14351 -0.0566,0.56878 -0.13699,1.13458 -0.0834,0.5658 -0.19356,1.12862 -0.11018,0.55985 -0.24717,1.11672 -0.13698,0.55389 -0.30374,1.10182 -0.16379,0.55091 -0.35437,1.08991 -0.19059,0.539 -0.40797,1.06907 -0.21739,0.52708 -0.4586,1.04524 -0.24419,0.51815 -0.5122,1.0244 -0.26801,0.50624 -0.55984,0.99759 -0.29184,0.49433 -0.6075,0.9708 -0.31565,0.47646 -0.65513,0.93804 -0.33948,0.46157 -0.69981,0.90528 -0.36033,0.44371 -0.74447,0.86955 -0.38118,0.42583 -0.78319,0.83381 -0.40202,0.40499 -0.82488,0.79212 -0.42286,0.38713 -0.86359,0.75043 -0.43775,0.36628 -0.89635,0.71172 -0.4586,0.34246 -0.93208,0.66407 -0.47349,0.31863 -0.96186,0.61642 -0.49136,0.29779 -0.99164,0.57176 -0.50327,0.27099 -1.02142,0.51816 -0.51518,0.25014 -1.04227,0.47348 -0.52709,0.22037 -1.06311,0.41691 -0.539,0.19654 -1.08395,0.36628 -0.54794,0.16974 -1.10183,0.31268 -0.55389,0.14294 -1.11373,0.25908 -0.55985,0.11613 -1.12565,0.20547 -0.5658,0.0893 -1.13458,0.1489 -0.57473,0.0625 -1.14947,0.0953 -0.57771,0.0328 -1.15244,0.0357 -0.57772,0.003 -1.15543,-0.0208 -0.57473,-0.0238 -1.14947,-0.0744 -0.57473,-0.0536 -1.14649,-0.13401 -0.57176,-0.0804 -1.13756,-0.19058 -0.56878,-0.10721 -1.12862,-0.24419 -0.55985,-0.13698 -1.11374,-0.30077 -0.55388,-0.16378 -1.09586,-0.35437 -0.54496,-0.19058 -1.08098,-0.41095 -0.53304,-0.21738 -1.05715,-0.45859 -0.52114,-0.24419 -1.03334,-0.51518 -0.50922,-0.26801 -1.00653,-0.56282 -0.4973,-0.29481 -0.97675,-0.61047 -0.48242,-0.31864 -0.94697,-0.6611 -0.46455,-0.34245 -0.91421,-0.70576 -0.44669,-0.3633 -0.87551,-0.75043 -0.42881,-0.38415 -0.83976,-0.78914 -0.41095,-0.40797 -0.79808,-0.83381 -0.39011,-0.42584 -0.75937,-0.86955 -0.36628,-0.44669 -0.71171,-0.90826 -0.34544,-0.46157 -0.66705,-0.94102 -0.32162,-0.47944 -0.62238,-0.97079 -0.29779,-0.49433 -0.57176,-1.00355 -0.27099,-0.50922 -0.52113,-1.02738 -0.24717,-0.52113 -0.47051,-1.05418 -0.22037,-0.53304 -0.41691,-1.07502 -0.19654,-0.54495 -0.3633,-1.09586 -0.16974,-0.55092 -0.31268,-1.11076 -0.13996,-0.55985 -0.25312,-1.12565 -0.11316,-0.5658 -0.19952,-1.13755 -0.0864,-0.56878 -0.14294,-1.14352 -0.0566,-0.57473 -0.0864,-1.14947 -0.0298,-0.57771 -0.0298,-1.15542 0,-0.57474 0.0268,-1.15245 0.0298,-0.57473 0.0834,-1.14947 0.0566,-0.57473 0.14294,-1.14649 0.0834,-0.57176 0.19654,-1.13756 0.11316,-0.5658 0.25313,-1.12564 0.13996,-0.55985 0.30672,-1.11076 0.16676,-0.55091 0.3633,-1.09587 0.19357,-0.54198 0.41393,-1.07502 0.22037,-0.53304 0.46753,-1.05418 0.24717,-0.52113 0.52113,-1.03035 0.27397,-0.50922 0.56878,-1.00355 0.29779,-0.49433 0.61941,-0.97377 0.32161,-0.47945 0.66705,-0.94102 0.34245,-0.46455 0.70874,-0.90826 0.36926,-0.44668 0.75638,-0.87252 0.38713,-0.42882 0.79808,-0.83382 0.40797,-0.40797 0.83679,-0.7951 0.42882,-0.38712 0.8755,-0.75043 0.44669,-0.36628 0.91124,-0.70874 0.46455,-0.34245 0.94697,-0.66109 0.47944,-0.31864 0.97377,-0.61345 0.49731,-0.29481 1.00653,-0.5658 0.50923,-0.26801 1.03334,-0.51518 0.52113,-0.24418 1.05715,-0.46157 0.53304,-0.22036 1.078,-0.41095 0.54198,-0.19356 1.09587,-0.35735 0.55389,-0.16676 1.11373,-0.30374 0.55985,-0.13699 1.12565,-0.24717 0.5658,-0.11018 1.13755,-0.19356 0.57176,-0.0804 1.1465,-0.13401 z"
     id="path12"
     style="stroke-width:2.9779" />
  <path
     fill="#b20e00"
     d="m 403.02056,562.81389 c 26.02982,-32.64374 64.84078,-55.64206 107.65702,-53.57837 44.18608,-1.70336 80.74873,21.11033 108.40746,53.57837 -34.85632,13.46904 -57.61045,31.84565 -87.68426,52.76838 -5.51507,3.83851 -14.93416,13.08489 -20.7232,15.02946 C 475.99101,609.98977 441.48013,574.386 403.02056,562.81389 Z"
     id="path13"
     style="stroke-width:2.9779" />
  <path
     fill="#e33913"
     d="m 403.02056,562.81389 c 26.02982,-32.64374 64.84078,-55.64206 107.65702,-53.57837 V 630.61173 C 475.99101,609.98977 441.48013,574.386 403.02056,562.81389 Z"
     id="path14"
     style="stroke-width:2.9779" />
  <path
     fill="#dedede"
     d="m 497.54802,663.40436 h 90.56388 v 46.25273 l -75.50166,0.0596 c -10.42265,0.0179 -22.40274,1.24179 -32.64969,-0.0596 -15.03542,1.13756 -31.20839,0.0298 -46.34208,0 v -46.25273 z"
     id="path15"
     style="stroke-width:2.9779" />
  <path
     fill="#e33913"
     d="m 705.82828,509.23552 h 52.3068 v 50.15378 c -17.38795,-0.44073 -34.90396,-0.003 -52.3068,0 0.19058,-16.71793 0.0596,-33.43585 0,-50.15378 z"
     id="path16"
     style="stroke-width:2.9779" />
  <path
     fill="#e33913"
     d="m 263.41364,509.23552 h 50.59154 v 50.15378 c -16.843,-0.0328 -33.76343,0.54198 -50.59154,0 z"
     id="path17"
     style="stroke-width:2.9779" />
  <path
     fill="#fefefe"
     d="m 344.89791,663.40436 h 46.01451 v 46.25273 h -46.01451 c -0.2025,-15.40467 -0.003,-30.8421 0,-46.25273 z"
     id="path18"
     style="stroke-width:2.9779" />
  <path
     fill="#fefefe"
     d="m 630.06455,663.40436 h 45.84179 v 46.25273 h -45.84179 z"
     id="path19"
     style="stroke-width:2.9779" />
  <path
     fill="#e33913"
     d="m 908.251,800.25373 c 5.04159,-0.93208 41.4345,-1.02142 46.03833,0 l 0.11018,171.31261 c 0.0834,16.21169 4.63659,32.62586 -16.39631,34.96646 -17.41476,1.9387 -36.02366,0.7326 -53.56348,0.7356 l -98.74418,-0.033 H 740.77095 V 961.45339 H 908.251 l 0.0387,-109.68199 c 0.009,-17.07826 -0.89039,-34.48706 -0.0387,-51.51767 z"
     id="path20"
     style="stroke-width:2.9779" />
  <path
     fill="#e33913"
     d="m 69.129518,800.25373 h 45.409992 v 161.19966 c 17.92398,1.03929 36.51798,0.0298 54.51343,0.0238 l 111.51341,-0.0238 c 0.88741,14.14801 0.45264,29.07622 0,43.25991 l 0.14889,1.8851 c -5.13688,1.9683 -190.600463,0.6313 -211.585722,0.6372 z"
     id="path21"
     style="stroke-width:2.9779" />
  <path
     fill="#fdc901"
     d="M 69.129518,16.517311 H 280.56635 v 45.20541 h -157.63214 -8.3947 V 218.44362 H 69.129518 Z"
     id="path22"
     style="stroke-width:2.9779" />
  <path
     fill="#fdc901"
     d="m 740.77095,16.517311 c 14.58277,0.419586 29.35316,-0.0092 43.95678,-0.0039 l 103.32418,0.0039 c 17.75721,-0.0063 35.57101,-0.426733 53.31929,0 17.92696,12.759407 10.66981,49.961115 10.66088,70.785567 l -0.0447,131.140742 c -14.55597,-0.3365 -29.17448,-0.0268 -43.73641,0 V 61.722721 H 740.77095 c -0.36926,-15.024993 -0.0119,-30.171781 0,-45.20541 z"
     id="path23"
     style="stroke-width:2.9779" />
</svg>
